<?xml version="1.0" encoding="utf-8"?>
<!-- Generator: Adobe Illustrator 17.1.0, SVG Export Plug-In . SVG Version: 6.00 Build 0)  -->
<!DOCTYPE svg PUBLIC "-//W3C//DTD SVG 1.1//EN" "http://www.w3.org/Graphics/SVG/1.1/DTD/svg11.dtd">
<svg version="1.1" id="Capa_1" xmlns="http://www.w3.org/2000/svg" xmlns:xlink="http://www.w3.org/1999/xlink" x="0px" y="0px"
	 viewBox="0 0 60 60" enable-background="new 0 0 60 60" xml:space="preserve">
<g>
	<polygon points="43.5,26.8 43.6,26.8 43.6,26.5 43.8,26.5 43.8,26.1 43.5,26.1 43.5,26.5 43.2,26.5 43.2,26.5 43.2,27 43.2,27.1 
		43.5,27 	"/>
	<polygon points="16.5,23.5 16.3,23.5 16.3,23.7 16.2,23.7 15.8,23.8 15.8,24 15.8,24.4 15.8,24.4 16.2,24.6 16.3,24.6 16.3,24.4 
		16.5,24.4 16.5,24.4 16.5,24.4 16.7,24.6 16.8,24.7 16.8,24.7 17.2,24.7 17.2,24.6 17.2,24.4 17.2,24 17.2,23.8 17.2,23.7 
		16.8,23.7 16.8,23.4 17.2,22.9 17.2,22.8 17.2,22.6 17.2,22.5 17.2,22.3 17.2,22 16.8,21.9 17.2,21.7 17.2,21.6 17.4,21.6 
		17.6,21.6 17.6,21.4 17.4,21.3 16.8,21.3 16.7,20.8 16.5,20.7 16.5,20.7 16.3,20.7 16.3,20.7 16.2,20.8 16.2,20.8 15.8,21.3 
		15.8,21.6 16.2,21.6 16.2,21.9 16.3,22 16.3,22.3 16.3,22.5 16.2,22.6 16.2,22.6 16.2,22.6 16.2,22.8 16.3,22.9 16.3,22.9 
		16.5,22.9 16.5,23.4 	"/>
	<polygon points="40.8,23.5 40.8,23.7 40.9,24 41.2,24.4 41.4,24.4 41.4,24.4 41.6,24.4 41.7,23.8 42,23.7 42.4,23.7 42.6,23.7 
		42.8,23.7 42.9,23.8 43.4,23.8 43.5,23.8 43.5,23.8 43.5,23.7 43.6,23.5 43.5,23.4 43.5,23.1 43.5,22.9 42.8,22.9 42.4,22.6 
		42.3,22.5 42.3,22.3 42.3,22 42.4,21.9 42.4,21.9 42.8,21.9 42.8,22 42.9,22.3 43.4,22.6 43.5,22.6 43.5,22.3 43.5,22 43.5,22 
		43.6,21.9 43.8,21.9 43.8,22 44.4,21.9 44.6,21.7 44.4,22.3 43.9,22.5 43.9,22.8 43.8,23.1 43.8,23.7 43.8,24.4 43.6,25.2 
		43.6,25.8 43.8,25.8 44.4,25.6 44.6,25.2 44.9,25 44.9,24.7 44.9,24.7 44.9,24.4 44.9,23.7 44.9,22.9 45,22.6 45,22.3 44.9,21.7 
		45,21.3 45,20.7 45,20.4 45,19.9 44.9,19.8 44.9,19.8 44.9,19.8 44.9,19.5 45,19.2 45,18.7 45,18.4 44.9,18.4 44.9,18.1 44.9,18.1 
		44.6,17.7 44.4,17.7 43.9,17.4 43.8,17.7 43.8,17.7 43.8,18.1 43.8,18.6 43.8,19.2 43.8,19.5 43.8,19.8 43.9,19.9 44.4,20.7 
		44.6,20.8 44.6,21.4 43.9,21.3 43.8,21.3 43.5,21.3 43.5,21.3 43.5,20.8 43.2,20.7 42.8,20.5 42.6,20.5 42,20.5 41.4,20.5 
		40.9,20.7 40.8,21.3 40.6,21.6 40.5,21.7 40.4,22.3 40.5,22.5 40.6,22.6 40.8,22.8 40.8,22.9 	"/>
	<path d="M22.8,33.1V33v-0.2l0.1-0.2v-0.9l-0.1-0.3h-0.1h-0.2v0.2h-0.2l-0.1,0.1V32l0,0L22,32.1h-0.2l-0.2-0.9v0.1v0.2l-0.1,0.1
		L21.1,32L21,32.1l-0.1,0.2l-0.1,0.2L20.2,33l-0.2,0.1l-0.1,0.1h-0.1h-0.3l-0.2-0.1l0.2-0.5v-0.2l0.2-0.1l0.1-0.2H20l0.3-0.2
		l0.1-0.1l0.3-0.2l0.2-0.1l0.3-0.2l0.3,0.2l0.1-0.2l0.1-0.1l0.2-0.2l0.2-0.3V30l0.1-0.8h0.3h-0.2h-0.1L22,29.4l-0.2,0.2L21,29.7
		L20.7,30l-0.3,0L20,30.3l-0.1,0.2l-0.3-0.2l-0.9,0.2l-0.1,0.1v0.2l-0.1,0.1l0.1,0.2h0.1h0.2h0.2V32v0.1v0.2l-0.2,0.2l-0.2,0.2
		l-0.1-0.2l-0.1-0.2l-0.2-0.2V32v-0.1v-0.2l0.2-0.1l0.1-0.2h0.1l-0.1-0.1L18.3,31l-0.2-0.1l-0.3,0.3l-0.1,0.1l-0.2,0.2l-0.2,0.1
		l-0.6-0.2l-0.1-0.1l0.1-0.2h-0.3l0,0L16.3,31h-0.1v0.3v0.3l0.1,0.1l0.2,0.2l0.2,0.2v0.1h0.1H17h0.2h0.2l0.1,0.2l0.1,0.2l0.2,0.9
		l0.2,0.1l0.4,0.4l0.2,0.1l0.2,0.1v0.1l-0.2,0.1l-0.2,0.1v0.1l-0.1,0.3V36l0.1,0.1h1.2l0.4-0.1l0.1-0.1l0.2-0.1h0.2l0.1,0.1h0.1
		v-0.1v-0.5h-0.1h-0.1l-0.2,0.1l-0.2-0.1v-0.1l0.2-0.1h0.2v-0.4v-0.1l-0.2-0.1h-0.2v-0.1v-0.1l0.2-0.1l0.8-0.1l0.2-0.1l0.1-0.1h-0.1
		l0.1-0.1h0.1h0.2V33v0.6l-0.2,0.1v0.1L21.3,34l-0.1,0.1h-0.3v0.1v0.2v0.4l0.2,0.1l0.2,0.1l0.1,0.1h0.3h0.2l0.1-0.1l0.1-0.1v-0.1
		l0.2-0.1l0.2-0.1l0.1-0.1l0.4-0.1l0.2-0.1l0.1-0.1v-0.1v-0.1v-0.3l-0.6,0.1L22.8,33.1z M22.7,33.4l-0.2,0.5L22.3,34l-0.1,0.1
		L22,34.3l-0.5,0.2h-0.1h-0.1L21,34.4l0.2-0.3l0.1-0.1l0.1-0.1l0.2-0.1l0.2-0.1h0.1l0.1,0.1h0.6V33.4L22.7,33.4z"/>
	<polygon points="42.8,28 42.9,28 43.2,27.9 43.4,27.7 43.2,27.1 42.9,27.1 42.8,27.1 42.8,27.1 42.6,27.6 42.4,27.7 42.6,28 
		42.6,28.2 42.6,28.2 42.4,28.2 42.4,28.3 42.4,28.6 42.8,28.8 42.8,28.6 42.9,28.3 42.8,28.2 42.8,28.2 	"/>
	<polygon points="22.8,35.2 22.7,35.2 22.5,35.2 22.5,35.2 22.3,35.2 22.2,35.2 22.3,35.5 22.5,35.5 22.5,35.5 22.8,36 22.9,36.1 
		23.2,36.1 23.6,36 23.6,36 23.6,35.7 23.6,35.5 23.6,35.5 23.2,35.2 	"/>
	<polygon points="16.2,29.7 15.8,29.7 15.4,29.7 15.4,30 15.4,30 15.4,30 15.8,30.1 15.8,30.3 16.2,30.4 16.2,30.4 16.3,30.4 
		16.3,30.3 16.3,30.3 16.3,30.1 16.3,30 16.5,30 16.5,30 16.5,29.7 16.3,29.7 	"/>
	<polygon points="18.3,27.1 18.4,27.1 18.6,27 18.6,26.7 18.6,26.5 18.4,26.5 18.3,26.5 18.2,26.5 18,26.5 18,26.8 18.2,27.1 	"/>
	<polygon points="15.4,28.2 15.3,28 15.3,27.9 15.2,27.9 15.2,27.9 15,28.2 15.2,28.2 15.2,28.2 15.2,28.3 15.3,28.8 15.4,28.9 
		15.4,28.9 16.2,28.9 16.3,28.9 16.3,28.9 16.5,28.9 16.5,28.8 16.5,28.6 16.7,28.6 16.7,28.2 16.7,28.2 16.5,28 16.5,28 16.5,28 
		16.3,28 16.3,28 16.2,28.2 15.8,28.2 15.8,28.2 	"/>
	<polygon points="17.6,27.1 17.6,27.1 17.4,27.1 17.2,27.1 17.2,27.1 17.2,27.6 17.2,27.7 17.2,27.9 17.6,28 17.7,27.9 17.7,27.7 
		18,27.6 17.7,27.6 17.7,27.1 	"/>
	<polygon points="16.3,25.5 16.3,25.5 16.5,25.5 16.5,25.2 16.5,25.2 16.5,25 16.5,24.7 16.5,24.7 16.5,24.7 16.3,24.7 16.3,24.7 
		16.2,24.7 16.2,24.7 16.2,25 16.2,25 16.2,25.2 16.2,25.2 16.2,25.5 	"/>
	<path d="M34.4,20.8l0.1,0.1h0.1l0.1-0.1l0.1,0.1v-0.1l0.1,0.1v0.2v0.1l-0.1,0.2l-0.1,0.3l0,0.7l-0.3,0.2v0.1V23l0.1,0.1l0.1,0.2
		l0.3,0.1h0.3H36l0.1-0.1h0.1h0.1l0.1,0.1l0.1,0.2h0.1H37l0,0l0.1-0.2v-0.6l0.1-0.2l0.1-0.1l0.1-0.2h0.1h0.1v0.2l0.1,0.1l0.1,0.2
		h0.1H39V23v0.6l-0.1,0.1V24l-0.1,0.3l0.1,0.2l0.1,0.1l0,0l0.1,0.2v0.1L39,25.3l-0.3,0.1l0.2,0.2l0.1,0.1V26l0,0.1l-0.3,0.3
		l-0.1,0.1L38.2,27v0.2v0.1l0.1,0.2l0.1,0.1l-0.1,0.3v0.2l-0.1,0.1l-0.1,0.3L38,28.7h-0.1l-0.3-0.2h-0.2v-0.1v-0.3v0.1l-0.1,0.3
		l-0.2,0.8l0.2,0.2l0.1,0.1V30l0.2,0.2v0.1h0.3H38l0.1-0.1l0.1-0.2h0.1h0.1l0.1,0.2V30l0.1-0.1l0.1-0.2l0.1-0.1h0.1l0.1,0.1l0.1,0.2
		l0.1,0.1l0.3,0.2h0.5l0.1,0.1l0.1-0.1l0.3-0.2l0.1-0.1V30l0,0v-0.1l0.2-0.8v0.1l-0.2,0.2h-0.1l-0.2-0.2l-0.1-0.3l-0.2-0.1l-0.2-0.1
		l0.1-0.2l0.1-0.1l0.1-0.2V28l-0.1-0.2L40.6,28l-0.1,0l0,0l0,0l-0.3-0.1l0.2-0.2v-0.3v-0.1V27l-0.2-0.4l-0.1-0.9v-0.9v-0.9l0.1-0.2
		v-0.3v-0.9l-0.4-0.6l-0.1-0.2l-0.1-0.1v-0.3V21l-0.1-0.1l-0.1-0.2L39,20.5l-0.5-0.2h-0.9h-0.2l-0.1,0.2h-0.2l-0.3,0.1l-0.3,0.2
		h-0.5v-0.3l0.1-0.2v-0.1l0.3-0.2l0.1-0.1l0.2-0.2v-0.3l-0.2-0.1v-0.2L36.6,19L36,18.7l0.1-0.1v-0.2l0.3-0.1h0.2l0.1-0.2v-0.3v-0.4
		h-0.3l-0.3-0.1H36l-0.1-0.2v-0.1v-0.4v-0.1l0.1-0.2h0.1L37,16h0.1l0.1,0.1l0,0l0.1,0.2l0.1,0.1l0.3-0.1l0.3-0.2h-0.7L37.2,16h-0.1
		v-0.3l-0.2-0.2l-0.1-0.1L36.4,15l-0.1-0.6l0.1,0.1h0.3h0.1l0.5,0.2l0.9,0.3l0.9,0.1h0.1l0.2,0.2h0.1h0.2l0.1,0.1h0.6h0.1l0.1-0.1
		l0.1-0.2l0.1-0.1l0.1,0.1h0.1l0.1,0.2l0.1,0.1l0.3-0.1l0.1,0.1l0.2,0.2l0.1,0.1l0.2,0.8l0.1,0.2l0.2,0.1L43,17h0.6v-0.2l-0.2-1.1
		v-0.1l-0.1-0.8l0.2-0.5l-0.3-0.3l-0.3-0.3l-0.5-0.3l-0.8-0.3l-1.2-0.8l-0.1-0.1l-0.3-0.2h-0.2h-0.4h-0.8L38.1,12H38l-0.5-0.1h-0.1
		h-0.1h-0.1L36.6,12l-0.9,0.2l-0.1,0.1h-0.1h-0.1L35,12.5h-0.5v0.1v0.3v0.9v1.3l0.1,1.4V18l-0.1,0.9l-0.1,0.9v0.3l0.1,0.1v0.6H34.4z
		 M39.6,27.9L39.6,27.9l0.1-0.2v0.2l0.1,0.1v0.4v0.2h-0.1h-0.1l-0.3-0.2v-0.1v-0.2l0.1-0.1l0.2,0.1L39.6,27.9L39.6,27.9z M39,26.5
		h0.1l0.1,0.2h0.1l0.1,0.4h-0.1h-0.1H39V26.5z M36.3,21.6L36.3,21.6l0.3-0.2h0.1h0.1h0.6l0.1,0.2l0.1,0.1l-0.1,0.2V22l-0.1,0.3h-0.1
		h-0.3h-0.2l-0.3-0.2h-0.1L36.3,21.6L36.3,21.6z"/>
	<polygon points="33.3,22.9 33.1,22.9 33.1,23.1 33.1,23.4 33,23.5 33,23.7 32.8,23.8 32.7,24 32.7,24.4 32.7,24.7 32.8,24.7 
		33,24.7 33,24.4 33,23.7 33.1,23.7 33.3,23.7 33.8,23.7 33.9,23.5 33.8,23.1 	"/>
	<polygon points="33.3,19.5 33.1,19.5 33.1,19.3 33,18.7 33,18.6 33,18.1 33,17.7 32.8,17.7 32.7,17.5 32.2,17.5 32.2,17.7 
		32.2,18.1 32.1,18.4 31.9,18.7 31.9,18.7 31.5,18.7 31.3,18.7 31.2,18.7 30.9,18.7 30.8,18.7 30.4,19.2 30.3,19.3 30.2,19.5 
		29.8,19.5 29.6,19.5 29.1,19.5 29.1,19.5 28.8,19.5 28.8,19.6 28.7,19.9 28.5,20.7 28.5,21.3 28.2,21.7 28.1,22.3 28.1,22.8 
		28.1,23.4 28.1,24.6 28.1,24.7 27.9,24.7 27.9,24.7 27.3,24.7 27.2,24.7 27,24.7 27,24.7 27,24.7 27,24.4 26.7,24.6 26.7,24.7 
		26.7,24.7 26.7,25 27,25 27.3,25 27.8,25.2 27.9,25.6 27.9,25.8 28.1,25.8 28.2,25.8 28.5,25.8 28.7,25.8 28.8,25.5 29.1,25.2 
		29.2,25 29.7,24.7 29.7,24.7 29.7,24.4 29.2,24.4 29.2,24.4 29.1,24.6 28.9,24.7 28.8,24.7 28.8,24.6 28.7,24.4 28.7,24.4 28.7,24 
		28.8,23.8 28.8,23.5 28.8,22.8 28.8,22.6 28.9,22.5 29.1,22.3 29.1,22 29.2,22 29.1,21.7 29.1,21.6 29.1,21.6 29.1,20.8 29.1,20.7 
		29.1,20.5 29.2,20.4 29.6,19.9 29.8,19.8 30.4,19.8 30.9,19.9 30.9,20.4 31.1,20.5 30.9,20.7 30.9,20.8 30.4,20.8 29.8,20.8 
		29.2,20.8 29.2,21.3 29.8,21.3 30,21.3 30.2,21.4 30.8,21.6 30.9,21.7 31.1,22 31.3,22.3 31.3,22.3 31.8,22.3 31.9,22 31.9,21.9 
		32.1,21.6 32.2,21.4 32.1,20.8 31.5,20.5 31.3,20.4 31.3,20.4 31.2,20.4 31.2,19.9 31.2,19.8 31.3,19.8 31.3,19.8 31.8,19.6 
		31.9,19.6 32.1,19.8 32.2,19.9 32.7,20.5 32.7,20.7 33,21.3 33,20.8 33,20.8 33.1,20.7 33.1,20.5 33.1,20.4 33.3,19.8 33.9,19.5 	
		"/>
	<polygon points="31.2,27.1 31.2,27.6 31.1,27.6 31.2,27.7 31.3,27.7 31.5,27.7 31.8,27.7 31.9,27.6 31.8,27.1 31.3,27.1 	"/>
	<polygon points="31.8,26.1 31.8,26.1 31.8,25.8 31.8,25.8 31.3,25.8 31.3,25.8 31.2,25.8 31.2,26.1 31.2,26.1 31.3,26.5 31.3,26.5 
			"/>
	<polygon points="39.1,30.9 39.3,30.7 39.3,30.4 39.6,30.1 39.6,30 39.8,30 39.8,30 39.8,29.7 39.6,29.2 39.6,29.2 39.6,29.7 
		39.3,29.7 39.3,29.7 39.1,29.7 38.7,30 38.6,30 38.6,30.3 38.6,30.4 39,30.9 	"/>
	<polygon points="39.3,35.7 39.3,35.5 39.6,35.2 39.6,34.5 39.8,33.8 40.1,33.4 40.2,33.4 40.4,33.4 40.4,33.3 40.5,33.1 40.6,33 
		40.8,33 40.9,33.1 40.9,33.3 40.8,33.4 40.6,33.8 40.5,33.9 40.4,34.2 40.5,34.4 40.6,34.2 40.9,34.2 41.2,34.2 41.2,34.2 
		41.2,34.4 41.2,34.5 40.8,34.9 40.8,35.1 40.8,35.2 40.6,35.2 40.5,35.2 40.4,35.1 40.4,34.5 40.1,35.2 40.1,35.5 40.1,35.7 
		40.4,36 40.4,35.7 40.5,35.5 40.6,35.5 40.8,35.2 40.9,35.7 41.2,35.7 41.4,36 41.4,35.7 41.4,35.5 41.6,35.2 41.4,34.5 41.4,33.9 
		41.4,33.4 41.6,33.4 41.6,33.3 41.7,33.1 41.7,32.2 41.7,31.8 41.7,31 41.7,30.9 41.4,30.4 41.4,31 41.4,31.3 41.2,31.8 40.8,32.1 
		40.5,32.2 40.4,32.4 39.8,32.5 39.6,32.5 39.6,32.5 39.3,32.4 39,32.4 38.4,32.2 37.4,31.8 37.1,31.8 36.4,31.3 36,31 35.4,30.3 
		34.8,30 34.8,30 34.5,30.3 34.5,31 34.8,31.3 35.1,31.8 35.1,31.9 35.2,32.2 35.1,32.4 35.1,32.5 34.8,32.5 34.5,33 34.8,33.1 
		35.1,33.1 35.1,33.3 35.2,33.4 35.2,34.2 35.1,34.4 35.1,34.5 35.1,34.9 35.1,35.2 35.1,35.2 35.1,35.5 35.2,35.7 35.6,36 36,36 
		36.3,35.7 36.4,35.5 36.3,35.5 36.1,35.2 36.1,35.2 36.1,34.9 36.1,34.2 35.6,33.8 35.4,33.4 35.4,33.1 35.4,33 35.4,32.5 
		35.6,32.5 35.6,32.4 36,32.2 36.1,32.4 36.1,32.4 36.3,32.5 36.3,32.8 36.4,33.1 36.4,33.4 37.1,34.5 37.1,34.9 37.4,35.2 
		37.5,35.7 37.5,36 37.6,36.1 37.8,36.1 38.6,36.1 39,36 	"/>
	<path d="M24.3,18.7v0.2v0.6l0.1,0.2v0.1l0.2,0.2l0.2,0.1h0.3v0.3l-0.1,0.2V21v0.1v0.4l0.1,0.2h0.2h0.3h0.2l0.1-0.2v-0.3H26h0.2l0,0
		h0.2l0.1,0.3l0.1,0.2l0.2,0.1H27h0.2v-0.3v-0.8l0.1-0.6l0.1-0.2l0.2-0.1l0.3-0.2v-0.1l-0.6-0.2H27l-0.9-0.1h-0.1l-0.3-0.2L25,19
		l-0.2-0.2l-0.2-0.1l-0.1-1.1l0.1-0.9V16l0.2-0.8l0.3-0.9v-0.2l0.1-0.1h0.2l0.2-0.2l0,0l0.1-0.1l0.3-0.2l0.2-0.3l0.1-0.1l0.1-0.2
		l0.2-0.1H27h0.1l0.2,0.1l0.2,0.2l-0.2,0.1l-0.2,0.2l0.3,0v0.2l0.1,0.1l0.2,0.2l0.8,0.1l0.2,0.2l0.1,0.1l0.1,0.2l0.2,0.1l0.2,0.2
		l0.3-0.2l0.2-0.1l0.2-0.2l0.1-0.1l0.4-0.3l0,0l0.2-0.2h0.3h0.2l0.8,0.2l0.2,0.8h0.1l0.2-0.2l0.2-0.1l0.2-0.2l0.2-0.1l0.1-0.2v-1.1
		v-0.3V12l-0.1-0.1H32l0,0h-0.1l-1.1-0.2h-0.3l-0.8-0.1v-1H30h-0.9h-0.3l-0.2,0.2h-0.2l-0.1-0.4l0.3,0.1l-0.3,0.3h-0.1H28h-0.2h-0.1
		h-0.1l-0.2,0.2L27,11.1l-0.2,0.3l-0.1,0.1h-0.1h-0.3l-0.1,0.2l0,0L25.8,12l-0.1,0.2l-0.2,0.1l-0.2,0.2L25,13.4l-0.3,0.1l-0.2,0.2
		l-0.1,0.1l-0.1,0.3v0.6V15v0.9V16L24,16.2l-0.4,0.3v0.6V18l0.1,0.6L24.3,18.7z M25.7,20.7l0.1-0.1l0.1-0.2l0.2-0.1l0,0h0.2h0.1v0.1
		v0.2v0.1h-0.1l-0.2,0.2H26h-0.5v-0.2H25.7z M29.7,13.5L29.7,13.5l-0.1,0.3L29.4,14h-0.2l-0.1-0.2l-0.1-0.1v-0.2v-0.1l0.1-0.2h0.1
		h0.2h0.2L29.7,13.5L29.7,13.5z M28.8,12.4L28.8,12.4l0.1-0.1l0.2-0.2l0.2-0.1h0.1h0.1h0.2v0.1l0.2,0.2v0.9l-0.2,0.2l-0.2,0.1
		l-0.3-0.1l-0.2-0.2v-0.8H28.8z"/>
	<polygon points="24.4,35.7 24.6,36 24.8,36 24.9,35.7 24.9,35.5 24.9,35.5 24.9,35.2 24.8,35.2 24.6,35.2 24.6,35.2 24.3,35.2 
		24.3,35.2 24.3,35.5 	"/>
	<polygon points="25.1,24 25.1,24.4 24.9,24.4 24.9,24.4 24.9,24.6 24.9,24.7 24.9,24.7 25.1,25 25.7,25 25.7,25 25.7,24.7 
		25.7,24.4 25.7,24.4 25.7,24.4 	"/>
	<polygon points="30.2,27.6 30.4,27.6 30.9,27.6 30.9,27.6 30.9,27.6 30.9,27 30.9,26.7 30.3,26.8 30,26.7 29.8,26.7 29.8,26.5 
		29.6,26.5 29.1,26.5 28.8,26.5 28.5,26.5 28.1,26.5 27.9,26.5 27.8,26.5 27.3,26.5 27,26.5 26.7,26.5 25.9,26.5 26.1,26.5 
		26.1,26.7 26.2,26.7 26.7,26.8 26.7,27 26.7,27 26.8,27.1 27,27 27.9,27 28.1,27 28.5,27.1 28.8,27.1 29.1,27.1 29.2,27.1 
		29.8,27.6 	"/>
	<polygon points="29.1,27.9 28.5,28 28.1,27.9 27.9,27.9 27.9,27.9 27.6,27.7 27.3,27.7 27,27.7 27,27.9 27,28 27.2,28 27.3,28.2 
		27.6,28.2 27.9,28.3 27.9,28.3 28.1,28.3 28.1,28.6 29.1,28.2 29.1,28.2 29.8,27.9 29.2,27.9 	"/>
	<polygon points="22.8,27.9 22.7,27.7 22.5,27.9 22.5,28 22.5,28.2 22.3,28.2 22.2,28.2 22.2,28.3 21.9,28.3 21.8,28.3 21.6,28.6 
		21.6,28.9 21.9,28.9 22.2,28.9 22.2,28.9 22.2,28.8 22.3,28.6 22.5,28.3 22.5,28.6 22.7,28.6 22.8,28.6 22.9,28.3 23.2,28.2 
		23.2,28 22.9,27.9 	"/>
	<polygon points="14.1,26.7 14.2,26.8 14.7,27 15.2,27 15.3,27 15.4,27 15.8,26.8 15.8,26.5 15.8,26.5 15.8,26.1 15.4,26.1 
		15.2,26.1 15.2,26.1 15,26.1 14.7,26.1 14.4,25.8 14.4,25.8 14.1,26.1 14.1,26.1 13.9,26.1 13.9,26.5 14.1,26.5 	"/>
	<path d="M31.3,35.1L31.3,35.1l0.5,0.3l0.1,0.1h0.3l0.2,0.1l0.2,0.1H33h0.1h0.8v-0.3v-0.5v-0.6v-0.1l0.1-0.1l0.1-0.1v-0.6v-0.3V33
		L34,32.7v-0.8v-0.6l0.1-0.9v-0.3V30h0.1l0,0l0,0v-0.1l-0.1-0.2L34,29.5v-0.2v-0.1l0.1-0.2v-0.1l0.1-0.2v-0.4l0.1-0.3v-0.1h-0.1
		h-0.1L33.4,28l-0.1,0.2l-0.3,0l-0.2,0.2h-0.4l-0.9-0.2v0.2l-0.2,0.1h-0.1L31,28.6l-0.2,0.1h-0.2L30,29.1l-0.6,0.1l-0.2,0.2
		l-0.3,0.1h-0.1l-0.5,0.2h-0.6h-0.2l-0.3-0.2L27,29.4l-0.9-0.3l0.1,0.3l0.9,0.9l0.2,0.3l0.1,0.9l0.1,0.9v1.1v0.8l0.2,0.1l0.2,0.1
		l0.1-0.1h0.1l0.2-0.1l0.2-0.1l0.1-0.9l0.1-0.9l0.3-0.9l0.3-0.4l0.2-0.1l0.3-0.4l0.4-0.8l0.9-0.2v0.2v0.1l0,0l-0.2,0.2L30.2,30l0,0
		l0,0l0.1,0.2v0.1l0.1,0.2h0.2l0.2,0.1l-0.2,0.2v0.1l0.2,0.2l0.1,0.3l0.3,0.3l0,0l0.2,0.6l0.1,0.2v0.2h0.1l0.5-0.2l0.2,0.2v0.6v0.1
		v0.3l-0.2,0.1L32,33.9l-0.6-0.1l0.1,0.1v-0.3l-0.3-0.1L31,32.7l-0.2-0.4l-0.3-0.3L30.4,31L30,30l-0.2,0.2l-0.1,0.1l-0.1,0.3
		L29.4,31V32v0.2l-0.2,0.1l-0.1,0.2L28.3,33l-0.1,0.1v0.3l0.1,0.1l0.2,0.1h0.2h0.1H29h1l0.8-0.1l0.2,0.1v0.1L30.8,34h-0.2l-0.1-0.1
		H30L29.8,34l-0.1,0.1l-0.1,0.3h-0.2h-0.2v0v-0.1h-0.1h-0.1l-0.3,0.1l-0.2,0.1l-0.2,0.1l0,0h-0.1h-0.3l0,0l-0.2-0.1l-0.4-0.1
		l-0.1-0.1l-0.3-0.1l-0.1-0.1l-0.1-0.3v-0.1l0,0l0,0h0.1h0.1l0.2-0.1l0.2-0.1l0.1-0.1V33v-0.3l-0.1-0.2l-0.8,0.2h-0.2v0.1L26.1,33
		l-0.1-0.2l0,0l-0.1-0.1v-0.2v-0.2h0.1l0,0l0.1-0.2h0.2l0.2-0.1v-0.9L26.2,30l0,0h-0.2l-0.1-0.3l0,0l-0.1-0.1h-0.2V30v0.3L25.5,31
		l-0.2,0.8l-0.1,0.3L25,32.5l-0.2,0.2L24.6,33l0.2,0.1v0.3l0.2,0.1v0.1v0.1h-0.2L24.6,34L24,34.4l0.2,0.1l0.1,0.1l0.1-0.1l0.2-0.1
		h0.6l0.2-0.1l0.2,0.1l0.1,0.1v0.1v0.1l0.1,0.1l-0.1,0.1v0.1v-0.1l-0.4,0.1l0.2,0.1h0.1l0.1,0.1h0.2H26l0.3-0.1l0.8-0.1l0.6-0.1
		l0.1-0.1h0.2h0.2h0.4l0.2,0.1l0.1,0.1l0.1,0.1l0.2,0.1h0.2l0.1,0.1h0.3v-0.1l0,0H30h-0.2v-0.3l0.2-0.1l0.2,0.1l0.1-0.1l0.1,0.1h0.5
		L31.3,35.1L31.3,35.1L31.3,35.1L31.3,35.1L31.3,35.1z M32.7,31v0.2l-0.1,0.1l-0.2,0.3h-0.2l-0.3-0.2l-0.1-0.3V31h-0.3l0,0h-0.2
		v-0.2v-0.1v-0.2l0.2-0.1l0,0l0.2-0.2l0.1-0.1l0.1,0.1h0.2h0.2l0.1,0.2l0.2,0.1v0.9C32.8,31,32.7,31,32.7,31z"/>
	<polygon points="22.5,15.6 22.5,15.6 22.7,15.6 22.8,15.3 22.9,15.3 22.9,15.3 22.8,14.7 22.8,14.5 22.7,14.2 22.7,13.9 22.5,13.9 
		22.5,13.9 22.5,13.9 22.3,14.1 22.2,14.2 22.2,14.2 22.2,14.7 22.3,15.3 22.3,15.3 	"/>
	<polygon points="21.3,19.9 21,20.4 21,20.5 20.8,20.5 20.7,20.7 20.7,20.8 20.7,21.4 20.4,21.6 20.4,22 20.2,22.6 20.2,22.8 
		20.4,22.9 20.6,22.9 20.6,22.8 20.7,22.6 20.7,22.3 20.7,22 20.8,22 21.3,22.3 21.4,22.5 21.4,22.5 21.4,22 21.4,22 21.4,21.9 
		21.4,21.7 21.4,21.6 21.4,21.6 21.6,21.4 21.6,20.7 21.4,20.5 21.4,20.5 21.4,20.4 	"/>
	<polygon points="31.3,36.1 31.8,36.1 31.9,36.1 31.9,36.1 32.1,36 32.2,35.7 31.9,35.5 31.8,35.5 31.5,35.2 31.3,35.4 31.2,35.5 
		31.2,35.7 31.2,36 	"/>
	<polygon points="22.3,13.5 22.5,13.5 22.5,13.5 22.7,13.5 22.8,13.5 22.9,13.2 22.8,13.2 22.8,13 22.5,12.9 22.5,12.9 22.2,12.9 
		22.2,13 22.2,13.2 	"/>
	<polygon points="27.9,35.2 27.9,35.2 27.9,35.5 27.8,35.5 27.6,35.5 27.6,35.7 27.8,36 27.9,36 27.9,36 28.1,36 28.2,35.5 
		28.2,35.5 28.1,35.5 28.1,35.5 28.1,35.2 	"/>
	<path d="M20.4,13.5l-0.3,0.2l-0.6,0.4l-0.2,0.1l-0.1,0.2L19,15.1l-0.2,0.1l-0.3,0.2h-0.1l-0.2,0.1H18l-0.1,0.2l-0.2,0.1h-0.2v0.3
		l-0.4,0.3l-0.1,0.2l-0.1,0.1l-0.3,0.9l0,0l-0.2,0.2v0.9l0.2,0.2V19l0.2,0.3l0.1,0.2l0.1,0.1l0.2-0.1h0.2l0.1-0.2l0.1-0.1H18h0.3
		h0.1l0.2,0.1l0.3,0.3l0.1,0.3l0.2,0.2h0.3l0.2-0.2l0.3-0.1l0.2-0.2h0.2h0.1h0.1l0.2,0.2l0.2,0.1l0.1,0.2l0.1,0.1l0.2,0.2l0.2,0.1
		l-0.2,0.9v1.1v0.1l0.2,0.4l-0.2,0.2l0.2,0.3l-0.2,0.1l-0.2,0.2H21v-0.2V24v-0.3v-0.1h0h-0.2l-0.1,0.1h-0.1l-0.2,0.2L20.2,24v0.3
		v0.3l0,0v0.2l0.2,0.1l0.1,0.2l0.1,0.1l0.2,0.2l0.2,0.1l-0.2,0.2L20.7,26v0.1v0.2l-0.1-0.2h-0.1l-0.2,0.2h-0.2l-0.1-0.2v0.3v0.3v0.2
		L19.8,27l-0.3,1l-0.3,0.2L19,28.5l-0.3,0.1v0.2L18.6,29v0.2l0.1,0.1l0.2,0.2l0.2,0.1l0.1,0.2h0.1l0.2-0.2l0.3-0.1l0.6-0.8l0.8-0.3
		h0.1l0.1-0.2l0.3-0.1l0.1-0.8l0.1-0.2l0.2-0.1l0.3,0l0.2-0.1l0.1-0.3l0.1-0.2l0.2-0.1v-0.2h0.2l0.1-0.1V25v-0.1l-0.1-0.3l0-0.6
		v-0.1l0.2-0.2l0.1-0.1l0.1-0.2v-0.1v-0.9l-1.2-1l-0.2-0.9v-0.9v-0.8l0.2-0.1V18v-0.1h-0.2l0.2-0.3h-0.2v-0.2h-0.1v-0.1v-0.7v-0.1
		L22,16.2V16h-0.2l0,0h-0.2h0.2l0,0v0.1l0.2,0.2v0.1l0.1,0.3L22,17v0.1l-0.2,0.2v0.3l-0.2,0.8l-0.1,0.1h-0.1H21l-0.3-0.1h-0.1
		l-0.3,0.1h-0.7l-0.3-0.1H19l-0.2-0.2L18.7,18v-0.3l0,0v-0.2l0.2-0.1H19h0.1v0.1l0.1,0.2l0.2,0.1l0.2,0.2h0.1l0.1-0.2l0.2-0.1
		l0.2-0.2l0.1-0.1h0.4H21h0.1l0.1,0.1l0.2-0.1v-0.2v-0.1l-0.6-0.3v-0.3l0.1-0.1l0.2-0.8l0.1-0.9l0.1-0.8v-0.8v-0.3h-0.1l-0.1-0.1
		l-0.3,0.1h-0.1h-0.1L20.4,13.5z M21.6,18.7L21.6,18.7l0.2-0.1l0.2,0.1V19v0.2h-0.2h-0.2L21.4,19L21.6,18.7L21.6,18.7L21.6,18.7z
		 M20.7,15.6L20.7,15.6v0.1v0.2V16l-0.1,0.2l-0.3,0.3l-0.2-0.1h-0.1v-0.2L19.8,16l0,0l0.1-0.2l0.1-0.1h0.5h0.1V15.6z"/>
	<path d="M25.7,41.4c-0.2,3,0.9,5.4,3,7.5C28.8,45.8,28.1,43.4,25.7,41.4z"/>
	<path d="M22.5,54.3c3-0.3,4.9-2.2,6.2-5.2C25.7,49.8,23.6,51.3,22.5,54.3z"/>
	<path d="M21.4,40.5c-0.4,3,0.3,5.4,2.2,7.5C24.3,45,23.8,42.4,21.4,40.5z"/>
	<path d="M16.8,51.8c3,0.3,5.1-1.1,6.8-3.5C20.7,48.1,18.6,49.2,16.8,51.8z"/>
	<path d="M19.7,46.5c1-2.9,0.9-5.4-0.9-7.8C17.6,41.2,18.2,43.8,19.7,46.5z"/>
	<path d="M15.3,35.5c-1.2,2.7-1.1,5.2,0.2,7.8C16.8,40.8,17.1,38.2,15.3,35.5z"/>
	<path d="M13.3,31.9c-1.5,2.2-1.9,5.1-0.9,7.8C14.1,37.4,14.6,34.9,13.3,31.9z"/>
	<path d="M13.2,27.9c-2.2,1.5-3.4,4.1-3.4,7C12,33.1,13.3,31,13.2,27.9z"/>
	<path d="M13.3,23.7c-2.7,0.9-4.3,2.9-5.2,6C10.9,28.3,12.9,26.7,13.3,23.7z"/>
	<path d="M13.3,19.2C10.7,19.9,9,21.4,7.9,24C10.5,23.4,12.8,21.9,13.3,19.2z"/>
	<path d="M15.4,15.1c-2.7-0.2-4.5,0.9-6.3,3.3l0,0C11.8,18.4,14.1,17.5,15.4,15.1z"/>
	<path d="M7,11.1c-0.9,3,0.2,5.2,2.1,7.2C9.8,15.4,8.8,13,7,11.1z"/>
	<path d="M20.7,6c-2.7,0.2-4.5,1.2-6.2,3.6C17.2,9.4,19.3,8.7,20.7,6z"/>
	<path d="M12,47.5c2.7,1.4,5.2,0.9,7.7-0.9C16.8,45.4,14.2,45.8,12,47.5z"/>
	<path d="M15.4,43.6c-2.4-1.8-5.1-2-7.5-0.9C10.2,44.7,13.1,44.7,15.4,43.6z"/>
	<path d="M12.3,39.8c-1.9-2.2-4.3-3.1-7.2-2.9C6.9,39.4,9.3,40.4,12.3,39.8z"/>
	<path d="M9.6,34.9c-1.1-2.8-3-4.5-5.8-5.2C4.7,32.4,6.8,34.2,9.6,34.9z"/>
	<path d="M8.1,29.7c-0.2-3-1.2-5.4-3.9-7.1C4.3,25.8,5.7,27.9,8.1,29.7z"/>
	<path d="M8.1,24c0-3-1-5.1-3.3-6.8C4.5,19.9,5.7,22.3,8.1,24z"/>
	<path d="M11.4,13.5L11.4,13.5C11.7,13.5,11.7,13.5,11.4,13.5c2.8,0.3,5.1-0.1,6.6-2.7h-0.2l0,0C15.4,10.8,13.3,11.4,11.4,13.5
		c1.1-2.7,0.9-5.2-0.6-7.5C9.6,8.7,9.9,11.1,11.4,13.5L11.4,13.5z"/>
	<path d="M34.4,41.2c-2.7,1.9-3.3,4.4-3,7.5C33.9,46.8,34.8,44.1,34.4,41.2z"/>
	<path d="M31.3,48.9c1.1,3,3,4.9,6.2,5.2C36.4,51.3,34.4,49.6,31.3,48.9z"/>
	<path d="M36.1,47.9c2.1-2.2,2.9-4.5,2.2-7.5C36.1,42.3,35.7,44.9,36.1,47.9z"/>
	<path d="M36.1,47.9c1.8,2.4,4,4,6.9,3.4C41.4,49.2,39.3,47.9,36.1,47.9z"/>
	<path d="M41.4,38.4c-2,2.4-2,5.1-0.9,7.8C41.9,43.6,42.3,41.2,41.4,38.4z"/>
	<path d="M44.7,35.4c-1.8,2.7-1.6,5.2-0.1,7.8C45.8,40.6,45.9,38.1,44.7,35.4z"/>
	<path d="M47.7,39.8c0.9-2.9,0.9-5.4-0.9-7.8C45.4,34.5,45.9,37.4,47.7,39.8z"/>
	<path d="M50.2,34.5c0-3-1.2-5.4-3.4-7.2C46.6,30.9,48,33.1,50.2,34.5z"/>
	<path d="M46.6,23.5c0.6,3,2.4,4.9,5.1,6C51,26.5,49.2,24.6,46.6,23.5z"/>
	<path d="M46.6,19.2c0.9,2.9,2.9,4.2,5.4,4.8C50.9,21.3,49.1,19.5,46.6,19.2z"/>
	<path d="M50.9,18.3C49.2,16,47,15,44.6,15C45.9,17.4,48,18.3,50.9,18.3z"/>
	<path d="M41.9,10.8L41.9,10.8C41.9,10.8,41.7,10.8,41.9,10.8c1.5,2.4,3.9,3,6.5,2.7l0,0h0.1C46.6,11.2,44.6,10.3,41.9,10.8z"/>
	<path d="M45.6,9.3c-1.4-2.2-3.5-3.4-6.1-3.6C40.6,8.7,42.8,9.3,45.6,9.3z"/>
	<path d="M40.4,46.5c2.2,1.8,5,2.2,7.5,0.9C45.6,45.6,43.2,45.3,40.4,46.5z"/>
	<path d="M44.6,43.6c2.7,1,5.2,1,7.5-0.9C49.4,41.5,46.8,41.9,44.6,43.6z"/>
	<path d="M47.7,39.8c3,0.3,5.4-0.3,7.2-3C52.1,36.6,49.8,37.4,47.7,39.8z"/>
	<path d="M50.6,34.5c2.8-0.9,4.9-2.2,5.7-5.3C53.4,30,51.8,31.8,50.6,34.5z"/>
	<path d="M51.9,29.7c2.4-1.5,4-3.9,3.8-7.1C53.2,24,51.9,26.5,51.9,29.7z"/>
	<path d="M55.4,17.1c-2.2,1.5-3.3,3.9-3.3,6.6C54.3,22,55.5,19.8,55.4,17.1z"/>
	<path d="M52.9,10.9c-1.9,1.9-2.7,4.4-2.1,7.2C52.8,16.2,53.7,13.9,52.9,10.9z"/>
	<path d="M49.1,5.8c-1.4,2.3-1.5,4.9-0.5,7.5C50.1,10.9,50.6,8.7,49.1,5.8z"/>
</g>
</svg>
